<svg style="object-fit:cover" id="my-svg" version="1" baseProfile="full" width="100%" height="100%" viewBox="0 0 1440 693" xmlns="http://www.w3.org/2000/svg"><rect width="1440" height="693" fill="#ffffff" fill-opacity="0"/><defs><linearGradient id="linear-gradient" x1="1" x2="0" y1="1" y2="0"><stop offset="0%" stop-color="#b7000890"/><stop offset="100%" stop-color="#b3630090"/></linearGradient></defs><path transform="scale(-1, 1)" style="transform-origin: center center 0px;" d="M 0,693 V 0,415 L 123,497 L 255,489 L 359,396 L 500,357 L 578,346 L 697,318 L 826,279 L 941,564 L 1084,432 L 1203,322 L 1308,346 L 1440,415 C 1440,415 1440,693 1440,693 Z" stroke="none" stroke-width="0" fill="url(#linear-gradient)" class="transition-all duration-300 ease-in-out delay-150"/><defs><linearGradient id="linear-gradient" x1="1" x2="0" y1="1" y2="0"><stop offset="0%" stop-color="#b70008ff"/><stop offset="100%" stop-color="#b36300ff"/></linearGradient></defs><path transform="scale(-1, 1)" style="transform-origin: center center 0px;" d="M 0,693 V 0,623 L 118,632 L 224,709 L 350,584 L 471,535 L 615,766 L 710,495 L 854,493 L 975,542 L 1061,756 L 1201,729 L 1314,652 L 1440,623 C 1440,623 1440,693 1440,693 Z" stroke="none" stroke-width="0" fill="url(#linear-gradient)" class="transition-all duration-300 ease-in-out delay-150"/></svg>